# xmcd
#
# Track frame offsets: 
#        150
#        15893
#        32971
#        52855
#        71050
#        87412
#        105795
#        125989
#
# Disc length: 1903 seconds
#
# Revision: 0
# Processed by: cddbd v1.5.2PL0 Copyright (c) Steve Scherf et al.
# Submitted via: ExactAudioCopy v1.0b1
#
DISCID=5f076d08
DTITLE=Mahmut Ferati - Sille Botën Krejtë
DYEAR=2012
DGENRE=Musical
TTITLE0=Sille Botën Krejtë
TTITLE1=Trokas
TTITLE2=Kujtoje
TTITLE3=Kam ba Be
TTITLE4=Me ty Asnjëherë
TTITLE5=Në Mërgim u Treta
TTITLE6=Lumja Nëna
TTITLE7=Nënës
EXTD=
EXTT0=
EXTT1=
EXTT2=
EXTT3=
EXTT4=
EXTT5=
EXTT6=
EXTT7=
PLAYORDER=
